<svg width="24" height="24" viewBox="0 0 24 24" fill="none" xmlns="http://www.w3.org/2000/svg">
<path d="M2.06199 11.652C1.97865 11.8765 1.97865 12.1235 2.06199 12.348C2.87369 14.3161 4.2515 15.999 6.02076 17.1831C7.79001 18.3672 9.87103 18.9994 12 18.9994C14.1289 18.9994 16.21 18.3672 17.9792 17.1831C19.7485 15.999 21.1263 14.3161 21.938 12.348C22.0213 12.1235 22.0213 11.8765 21.938 11.652C21.1263 9.68386 19.7485 8.00104 17.9792 6.8169C16.21 5.63276 14.1289 5.00062 12 5.00062C9.87103 5.00062 7.79001 5.63276 6.02076 6.8169C4.2515 8.00104 2.87369 9.68386 2.06199 11.652Z" stroke="#68717C" stroke-width="2" stroke-linecap="round" stroke-linejoin="round"/>
<path d="M12 15C13.6569 15 15 13.6569 15 12C15 10.3431 13.6569 9 12 9C10.3431 9 9 10.3431 9 12C9 13.6569 10.3431 15 12 15Z" stroke="#68717C" stroke-width="2" stroke-linecap="round" stroke-linejoin="round"/>
</svg>
