<svg width="48" height="48" viewBox="0 0 48 48" fill="none" xmlns="http://www.w3.org/2000/svg">
<g filter="url(#filter0_f_205_556)">
<path d="M-0.2771 24.1023C-0.251646 27.9253 0.8377 31.8697 2.48661 35.0538V35.0757C3.67802 37.3882 5.30634 39.2148 7.16097 41.0246L18.3625 36.9375C16.2432 35.861 15.9198 35.2013 14.4007 33.9977C12.8482 32.4322 11.6912 30.6351 10.9706 28.5279H10.9416L10.9706 28.506C10.4966 27.1144 10.4498 25.6374 10.4323 24.1023H-0.2771Z" fill="url(#paint0_radial_205_556)"/>
</g>
<g filter="url(#filter1_f_205_556)">
<path d="M24.5875 -0.233154C23.4803 3.65643 23.9037 7.43724 24.5875 9.63708C25.866 9.63803 27.0976 9.79043 28.2654 10.094C30.9427 10.7901 32.8363 12.1609 33.9967 13.2453L41.1778 6.21303C36.9237 2.31251 31.8041 -0.227009 24.5875 -0.233154Z" fill="url(#paint1_radial_205_556)"/>
</g>
<g filter="url(#filter2_f_205_556)">
<path d="M24.5635 -0.263916C19.1328 -0.264033 14.1191 1.42799 10.0104 4.28758C8.48491 5.34935 7.08495 6.57587 5.83838 7.93978C5.51181 11.0035 8.28302 14.7691 13.7709 14.738C16.4335 11.6407 20.3716 9.63673 24.7546 9.63673C24.7586 9.63673 24.7625 9.63706 24.7665 9.63707L24.5875 -0.263215C24.5794 -0.26322 24.5716 -0.263916 24.5635 -0.263916Z" fill="url(#paint2_radial_205_556)"/>
</g>
<g filter="url(#filter3_f_205_556)">
<path d="M42.4876 25.2108L37.6404 28.5408C37.4277 29.8467 36.9498 31.1313 36.2503 32.3027C35.449 33.6448 34.4584 34.6665 33.4429 35.4446C30.4075 37.7706 26.8707 38.2495 24.4085 38.2515C21.8636 42.5859 21.4175 44.757 24.5875 48.2552C28.5101 48.2523 31.9877 47.5442 35.0551 46.2183C37.2724 45.2597 39.2369 44.0095 41.0156 42.4028C43.3658 40.2798 45.2067 37.6537 46.463 34.6324C47.7193 31.6112 48.3911 28.1948 48.3911 24.4907L42.4876 25.2108Z" fill="url(#paint3_radial_205_556)"/>
</g>
<g filter="url(#filter4_f_205_556)">
<path d="M24.2295 19.1382V29.0666H47.5506C47.7557 27.7069 48.434 25.9473 48.434 24.4907C48.434 22.7885 48.2632 20.7093 47.9733 19.1382H24.2295Z" fill="#3086FF"/>
</g>
<g filter="url(#filter5_f_205_556)">
<path d="M5.94966 7.58936C4.51051 9.16398 3.28103 10.9264 2.3062 12.8325C0.633758 16.0923 -0.281982 20.0554 -0.281982 23.9395C-0.281982 23.9942 -0.277452 24.0478 -0.277087 24.1024C0.463586 25.5225 9.95397 25.2506 10.4323 24.1024C10.4317 24.0488 10.4257 23.9966 10.4257 23.9429C10.4257 22.3498 10.6948 21.1756 11.1854 19.7353C11.7906 17.9588 12.7382 16.3228 13.9499 14.9133C14.2246 14.5626 14.9573 13.8087 15.171 13.3565C15.2524 13.1843 15.0232 13.0876 15.0104 13.027C14.996 12.9592 14.6887 13.0137 14.6198 12.9632C14.4011 12.8028 13.9682 12.7191 13.7053 12.6446C13.1433 12.4855 12.212 12.1346 11.6947 11.7709C10.0596 10.6211 7.50794 9.24775 5.94966 7.58936Z" fill="url(#paint4_radial_205_556)"/>
</g>
<g filter="url(#filter6_f_205_556)">
<path d="M11.7298 13.0337C15.5214 15.3305 16.6118 11.8744 19.1327 10.7929L14.7475 1.69922C13.1344 2.37721 11.6104 3.21955 10.1962 4.20375C8.08441 5.67358 6.2195 7.46719 4.67896 9.50834L11.7298 13.0337Z" fill="url(#paint5_radial_205_556)"/>
</g>
<g filter="url(#filter7_f_205_556)">
<path d="M13.2731 36.235C8.1833 38.0725 7.38648 38.1384 6.91797 41.2927C7.81327 42.1663 8.7752 42.9745 9.79741 43.7072C12.5403 45.6734 17.8164 48.292 24.5641 48.292C24.572 48.292 24.5796 48.2913 24.5875 48.2913V38.0764C24.5824 38.0764 24.5765 38.0768 24.5714 38.0768C22.0447 38.0768 20.0255 37.4131 17.9553 36.259C17.4448 35.9744 16.5188 36.7385 16.048 36.3969C15.3987 35.9258 13.8362 36.8029 13.2731 36.235Z" fill="url(#paint6_radial_205_556)"/>
</g>
<g opacity="0.5" filter="url(#filter8_f_205_556)">
<path d="M21.6067 37.7546V48.1143C22.5508 48.2249 23.5334 48.292 24.5641 48.292C25.5973 48.292 26.597 48.2389 27.5683 48.1414V37.8245C26.4798 38.0106 25.4546 38.0767 24.5714 38.0767C23.5543 38.0767 22.5651 37.9583 21.6067 37.7546Z" fill="url(#paint7_linear_205_556)"/>
</g>
<defs>
<filter id="filter0_f_205_556" x="-0.747179" y="23.6322" width="19.5797" height="17.8625" filterUnits="userSpaceOnUse" color-interpolation-filters="sRGB">
<feFlood flood-opacity="0" result="BackgroundImageFix"/>
<feBlend mode="normal" in="SourceGraphic" in2="BackgroundImageFix" result="shape"/>
<feGaussianBlur stdDeviation="0.23504" result="effect1_foregroundBlur_205_556"/>
</filter>
<filter id="filter1_f_205_556" x="23.4367" y="-0.703234" width="18.2112" height="14.4187" filterUnits="userSpaceOnUse" color-interpolation-filters="sRGB">
<feFlood flood-opacity="0" result="BackgroundImageFix"/>
<feBlend mode="normal" in="SourceGraphic" in2="BackgroundImageFix" result="shape"/>
<feGaussianBlur stdDeviation="0.23504" result="effect1_foregroundBlur_205_556"/>
</filter>
<filter id="filter2_f_205_556" x="5.34242" y="-0.733995" width="19.8941" height="15.9421" filterUnits="userSpaceOnUse" color-interpolation-filters="sRGB">
<feFlood flood-opacity="0" result="BackgroundImageFix"/>
<feBlend mode="normal" in="SourceGraphic" in2="BackgroundImageFix" result="shape"/>
<feGaussianBlur stdDeviation="0.23504" result="effect1_foregroundBlur_205_556"/>
</filter>
<filter id="filter3_f_205_556" x="21.8837" y="24.0206" width="26.9775" height="24.7046" filterUnits="userSpaceOnUse" color-interpolation-filters="sRGB">
<feFlood flood-opacity="0" result="BackgroundImageFix"/>
<feBlend mode="normal" in="SourceGraphic" in2="BackgroundImageFix" result="shape"/>
<feGaussianBlur stdDeviation="0.23504" result="effect1_foregroundBlur_205_556"/>
</filter>
<filter id="filter4_f_205_556" x="23.7594" y="18.6681" width="25.1447" height="10.8686" filterUnits="userSpaceOnUse" color-interpolation-filters="sRGB">
<feFlood flood-opacity="0" result="BackgroundImageFix"/>
<feBlend mode="normal" in="SourceGraphic" in2="BackgroundImageFix" result="shape"/>
<feGaussianBlur stdDeviation="0.23504" result="effect1_foregroundBlur_205_556"/>
</filter>
<filter id="filter5_f_205_556" x="-0.752062" y="7.11928" width="16.4106" height="18.4189" filterUnits="userSpaceOnUse" color-interpolation-filters="sRGB">
<feFlood flood-opacity="0" result="BackgroundImageFix"/>
<feBlend mode="normal" in="SourceGraphic" in2="BackgroundImageFix" result="shape"/>
<feGaussianBlur stdDeviation="0.23504" result="effect1_foregroundBlur_205_556"/>
</filter>
<filter id="filter6_f_205_556" x="1.3741" y="-1.60563" width="21.0634" height="18.7161" filterUnits="userSpaceOnUse" color-interpolation-filters="sRGB">
<feFlood flood-opacity="0" result="BackgroundImageFix"/>
<feBlend mode="normal" in="SourceGraphic" in2="BackgroundImageFix" result="shape"/>
<feGaussianBlur stdDeviation="1.65243" result="effect1_foregroundBlur_205_556"/>
</filter>
<filter id="filter7_f_205_556" x="6.44789" y="35.724" width="18.6097" height="13.0381" filterUnits="userSpaceOnUse" color-interpolation-filters="sRGB">
<feFlood flood-opacity="0" result="BackgroundImageFix"/>
<feBlend mode="normal" in="SourceGraphic" in2="BackgroundImageFix" result="shape"/>
<feGaussianBlur stdDeviation="0.23504" result="effect1_foregroundBlur_205_556"/>
</filter>
<filter id="filter8_f_205_556" x="21.1366" y="37.2846" width="6.90183" height="11.4775" filterUnits="userSpaceOnUse" color-interpolation-filters="sRGB">
<feFlood flood-opacity="0" result="BackgroundImageFix"/>
<feBlend mode="normal" in="SourceGraphic" in2="BackgroundImageFix" result="shape"/>
<feGaussianBlur stdDeviation="0.23504" result="effect1_foregroundBlur_205_556"/>
</filter>
<radialGradient id="paint0_radial_205_556" cx="0" cy="0" r="1" gradientTransform="matrix(-0.997443 -23.9038 35.8622 -1.43445 18.1382 40.6645)" gradientUnits="userSpaceOnUse">
<stop offset="0.141612" stop-color="#1ABD4D"/>
<stop offset="0.247515" stop-color="#6EC30D"/>
<stop offset="0.311547" stop-color="#8AC502"/>
<stop offset="0.366013" stop-color="#A2C600"/>
<stop offset="0.445673" stop-color="#C8C903"/>
<stop offset="0.540305" stop-color="#EBCB03"/>
<stop offset="0.615636" stop-color="#F7CD07"/>
<stop offset="0.699345" stop-color="#FDCD04"/>
<stop offset="0.771242" stop-color="#FDCE05"/>
<stop offset="0.860566" stop-color="#FFCE0A"/>
</radialGradient>
<radialGradient id="paint1_radial_205_556" cx="0" cy="0" r="1" gradientTransform="matrix(16.9393 -4.07113e-05 -2.38089e-05 21.4185 40.506 12.7364)" gradientUnits="userSpaceOnUse">
<stop offset="0.408458" stop-color="#FB4E5A"/>
<stop offset="1" stop-color="#FF4540"/>
</radialGradient>
<radialGradient id="paint2_radial_205_556" cx="0" cy="0" r="1" gradientTransform="matrix(-23.7332 12.8698 17.8375 31.532 31.2553 -3.36432)" gradientUnits="userSpaceOnUse">
<stop offset="0.231273" stop-color="#FF4541"/>
<stop offset="0.311547" stop-color="#FF4540"/>
<stop offset="0.457516" stop-color="#FF4640"/>
<stop offset="0.540305" stop-color="#FF473F"/>
<stop offset="0.699346" stop-color="#FF5138"/>
<stop offset="0.771242" stop-color="#FF5B33"/>
<stop offset="0.860566" stop-color="#FF6C29"/>
<stop offset="1" stop-color="#FF8C18"/>
</radialGradient>
<radialGradient id="paint3_radial_205_556" cx="0" cy="0" r="1" gradientTransform="matrix(-43.0409 -55.0094 -20.7393 15.555 24.9404 45.1486)" gradientUnits="userSpaceOnUse">
<stop offset="0.131546" stop-color="#0CBA65"/>
<stop offset="0.209784" stop-color="#0BB86D"/>
<stop offset="0.297297" stop-color="#09B479"/>
<stop offset="0.396257" stop-color="#08AD93"/>
<stop offset="0.477124" stop-color="#0AA6A9"/>
<stop offset="0.568425" stop-color="#0D9CC6"/>
<stop offset="0.667385" stop-color="#1893DD"/>
<stop offset="0.768727" stop-color="#258BF1"/>
<stop offset="0.858506" stop-color="#3086FF"/>
</radialGradient>
<radialGradient id="paint4_radial_205_556" cx="0" cy="0" r="1" gradientTransform="matrix(-3.04591 25.7043 36.3002 4.12336 22.4842 4.26962)" gradientUnits="userSpaceOnUse">
<stop offset="0.366013" stop-color="#FF4E3A"/>
<stop offset="0.457516" stop-color="#FF8A1B"/>
<stop offset="0.540305" stop-color="#FFA312"/>
<stop offset="0.615636" stop-color="#FFB60C"/>
<stop offset="0.771242" stop-color="#FFCD0A"/>
<stop offset="0.860566" stop-color="#FECF0A"/>
<stop offset="0.915033" stop-color="#FECF08"/>
<stop offset="1" stop-color="#FDCD01"/>
</radialGradient>
<radialGradient id="paint5_radial_205_556" cx="0" cy="0" r="1" gradientTransform="matrix(-8.80425 9.53355 -27.4644 -24.3132 18.2008 4.00293)" gradientUnits="userSpaceOnUse">
<stop offset="0.315904" stop-color="#FF4C3C"/>
<stop offset="0.603818" stop-color="#FF692C"/>
<stop offset="0.726837" stop-color="#FF7825"/>
<stop offset="0.884534" stop-color="#FF8D1B"/>
<stop offset="1" stop-color="#FF9F13"/>
</radialGradient>
<radialGradient id="paint6_radial_205_556" cx="0" cy="0" r="1" gradientTransform="matrix(-23.7332 -12.8698 17.8375 -31.532 31.2553 51.2466)" gradientUnits="userSpaceOnUse">
<stop offset="0.231273" stop-color="#0FBC5F"/>
<stop offset="0.311547" stop-color="#0FBC5F"/>
<stop offset="0.366013" stop-color="#0FBC5E"/>
<stop offset="0.457516" stop-color="#0FBC5D"/>
<stop offset="0.540305" stop-color="#12BC58"/>
<stop offset="0.699346" stop-color="#28BF3C"/>
<stop offset="0.771242" stop-color="#38C02B"/>
<stop offset="0.860566" stop-color="#52C218"/>
<stop offset="0.915033" stop-color="#67C30F"/>
<stop offset="1" stop-color="#86C504"/>
</radialGradient>
<linearGradient id="paint7_linear_205_556" x1="21.6067" y1="43.0233" x2="27.5683" y2="43.0233" gradientUnits="userSpaceOnUse">
<stop stop-color="#0FBC5C"/>
<stop offset="1" stop-color="#0CBA65"/>
</linearGradient>
</defs>
</svg>
