<svg width="24" height="24" viewBox="0 0 24 24" fill="none" xmlns="http://www.w3.org/2000/svg">
<path d="M8.25 8.25L12 12M12 12L15.75 8.25M12 12L8.25 15.75M12 12L15.75 15.75" stroke="#68717C" stroke-width="1.5" stroke-linecap="round" stroke-linejoin="round"/>
<path d="M8.25 9.75C9.07843 9.75 9.75 9.07843 9.75 8.25C9.75 7.42157 9.07843 6.75 8.25 6.75C7.42157 6.75 6.75 7.42157 6.75 8.25C6.75 9.07843 7.42157 9.75 8.25 9.75Z" fill="#68717C"/>
<path d="M15.75 9.75C16.5784 9.75 17.25 9.07843 17.25 8.25C17.25 7.42157 16.5784 6.75 15.75 6.75C14.9216 6.75 14.25 7.42157 14.25 8.25C14.25 9.07843 14.9216 9.75 15.75 9.75Z" fill="#68717C"/>
<path d="M8.25 17.25C9.07843 17.25 9.75 16.5784 9.75 15.75C9.75 14.9216 9.07843 14.25 8.25 14.25C7.42157 14.25 6.75 14.9216 6.75 15.75C6.75 16.5784 7.42157 17.25 8.25 17.25Z" fill="#68717C"/>
<path d="M15.75 17.25C16.5784 17.25 17.25 16.5784 17.25 15.75C17.25 14.9216 16.5784 14.25 15.75 14.25C14.9216 14.25 14.25 14.9216 14.25 15.75C14.25 16.5784 14.9216 17.25 15.75 17.25Z" fill="#68717C"/>
<path d="M12 13.875C13.0355 13.875 13.875 13.0355 13.875 12C13.875 10.9645 13.0355 10.125 12 10.125C10.9645 10.125 10.125 10.9645 10.125 12C10.125 13.0355 10.9645 13.875 12 13.875Z" fill="#68717C"/>
</svg>
