<svg width="24" height="24" viewBox="0 0 24 24" fill="none" xmlns="http://www.w3.org/2000/svg">
<path d="M19.06 12.501L21.84 9.794C21.9111 9.72499 21.9615 9.63743 21.9853 9.54126C22.0092 9.44508 22.0056 9.34414 21.975 9.2499C21.9444 9.15566 21.8879 9.07189 21.8121 9.00809C21.7363 8.9443 21.6441 8.90304 21.546 8.889L16.38 8.134C16.0395 8.08602 15.716 7.95515 15.4379 7.75289C15.1597 7.55063 14.9356 7.28317 14.785 6.974L12.475 2.294C12.4311 2.20551 12.3633 2.13105 12.2793 2.07903C12.1953 2.02701 12.0985 1.9995 11.9997 1.99961C11.9009 1.99971 11.8041 2.02742 11.7202 2.07962C11.6363 2.13182 11.5687 2.20642 11.525 2.295L9.216 6.974C9.06525 7.28342 8.84076 7.55105 8.56228 7.75332C8.2838 7.9556 7.95987 8.08633 7.619 8.134L2.454 8.889C2.3557 8.9029 2.26329 8.94413 2.18728 9.00798C2.11127 9.07184 2.05472 9.15576 2.02408 9.25019C1.99344 9.34462 1.98993 9.44575 2.01396 9.54207C2.03799 9.6384 2.08859 9.72603 2.16 9.795L5.896 13.432C6.14418 13.671 6.32973 13.9675 6.43629 14.2952C6.54284 14.6228 6.56713 14.9717 6.507 15.311L5.627 20.45C5.60999 20.5476 5.62067 20.648 5.65781 20.7398C5.69495 20.8316 5.75707 20.9111 5.83713 20.9694C5.91719 21.0277 6.01199 21.0624 6.11077 21.0696C6.20955 21.0768 6.30836 21.0561 6.396 21.01L11.013 18.582L11.04 18.568" stroke="#68717C" stroke-width="2" stroke-linecap="round" stroke-linejoin="round"/>
<path d="M15 18L17 20L21 16" stroke="#68717C" stroke-width="2" stroke-linecap="round" stroke-linejoin="round"/>
</svg>
